<svg xmlns="http://www.w3.org/2000/svg" width="1206" height="285" fill="none">
  <path fill="#fff" d="M1168.49 51h36.6v36.6h-36.6V51Zm0 36.6h36.6v36.6h-36.6V87.6Zm0 36.6h36.6v36.6h-36.6v-36.6Zm0 36.6h36.6v36.6h-36.6v-36.6Zm0 36.6h36.6V234h-36.6v-36.6Zm-36.6-109.8h36.6v36.6h-36.6V87.6Zm-36.6 36.6h36.6v36.6h-36.6v-36.6Zm0 36.6h36.6v36.6h-36.6v-36.6Zm36.6 36.6h36.6V234h-36.6v-36.6ZM949.028 87.6h36.6v36.6h-36.6V87.6Zm0 36.6h36.6v36.6h-36.6v-36.6Zm0 36.6h36.6v36.6h-36.6v-36.6Zm36.6 36.6h36.602V234h-36.602v-36.6Zm36.602 0h36.6V234h-36.6v-36.6Zm0-36.6h36.6v36.6h-36.6v-36.6Zm0-36.6h36.6v36.6h-36.6v-36.6Zm0-36.6h36.6v36.6h-36.6V87.6ZM802.771 87.6h36.6v36.6h-36.6V87.6Zm0 36.6h36.6v36.6h-36.6v-36.6Zm0 36.6h36.6v36.6h-36.6v-36.6Zm36.6 36.6h36.6V234h-36.6v-36.6Zm36.6 0h36.6V234h-36.6v-36.6Zm0-36.6h36.6v36.6h-36.6v-36.6Zm0-36.6h36.6v36.6h-36.6v-36.6Zm0-36.6h36.6v36.6h-36.6V87.6ZM729.643 51h36.6v36.6h-36.6V51Zm0 36.6h36.6v36.6h-36.6V87.6Zm0 36.6h36.6v36.6h-36.6v-36.6Zm0 36.6h36.6v36.6h-36.6v-36.6Zm0 36.6h36.6V234h-36.6v-36.6ZM619.985 87.6h36.6v36.6h-36.6V87.6Zm-36.6 36.6h36.6v36.6h-36.6v-36.6Zm0 36.6h36.6v36.6h-36.6v-36.6Zm36.6 36.6h36.6V234h-36.6v-36.6Zm36.6-109.8h36.6v36.6h-36.6V87.6Zm0 109.8h36.6V234h-36.6v-36.6ZM437.128 197.4h36.6V234h-36.6v-36.6Zm0-36.6h36.6v36.6h-36.6v-36.6Zm0-36.6h36.6v36.6h-36.6v-36.6Zm0-36.6h36.6v36.6h-36.6V87.6Zm36.6 0h36.6v36.6h-36.6V87.6Zm36.6 36.6h36.6v36.6h-36.6v-36.6Zm0 36.6h36.6v36.6h-36.6v-36.6Zm0 36.6h36.6V234h-36.6v-36.6ZM364 51h36.6v36.6H364V51Zm0 36.6h36.6v36.6H364V87.6Zm0 36.6h36.6v36.6H364v-36.6Zm0 36.6h36.6v36.6H364v-36.6Zm0 36.6h36.6V234H364v-36.6Z"/>
  <rect width="273" height="273" x="6" y="6" fill="#0F1111" stroke="url(#a)" stroke-width="12" rx="70"/>
  <path fill="#5586FF" d="M180.188 131.375V120.75h-74.376v10.625h26.563v14.524l-20.549 35.966 9.223 5.27 19.72-34.51h4.462l19.72 34.51 9.223-5.27-20.549-35.966v-14.524h26.563ZM143 115.438c5.868 0 10.625-4.757 10.625-10.626 0-5.867-4.757-10.624-10.625-10.624s-10.625 4.757-10.625 10.624c0 5.869 4.757 10.626 10.625 10.626Z"/>
  <path fill="#5586FF" d="M143 216.375a74.38 74.38 0 0 1-41.321-12.534 74.383 74.383 0 0 1-31.625-76.351A74.376 74.376 0 0 1 217.375 142 74.46 74.46 0 0 1 143 216.375Zm0-138.125a63.751 63.751 0 0 0-45.078 108.828A63.751 63.751 0 0 0 206.75 142 63.821 63.821 0 0 0 143 78.25Z"/>
  <defs>
    <linearGradient id="a" x1="0" x2="285" y1="143" y2="143" gradientUnits="userSpaceOnUse">
      <stop stop-color="#9648FF"/>
      <stop offset="1" stop-color="#02D4FF"/>
    </linearGradient>
  </defs>
</svg>
