<svg width="285" height="285" viewBox="0 0 285 285" fill="none" xmlns="http://www.w3.org/2000/svg">
<rect x="6" y="6" width="273" height="273" rx="70" fill="#0F1111" stroke="url(#paint0_linear_107_2)" stroke-width="12"/>
<path d="M180.188 131.375V120.75H105.812V131.375H132.375V145.899L111.826 181.865L121.049 187.135L140.769 152.625H145.231L164.951 187.135L174.174 181.865L153.625 145.899V131.375H180.188Z" fill="#5586FF"/>
<path d="M143 115.438C148.868 115.438 153.625 110.681 153.625 104.812C153.625 98.9445 148.868 94.1875 143 94.1875C137.132 94.1875 132.375 98.9445 132.375 104.812C132.375 110.681 137.132 115.438 143 115.438Z" fill="#5586FF"/>
<path d="M143 216.375C128.29 216.375 113.91 212.013 101.679 203.841C89.4486 195.668 79.9158 184.052 74.2865 170.462C68.6572 156.872 67.1844 141.918 70.0541 127.49C72.9239 113.063 80.0074 99.8105 90.409 89.4089C100.81 79.0074 114.063 71.9239 128.49 69.0541C142.918 66.1843 157.872 67.6572 171.462 73.2865C185.052 78.9157 196.668 88.4486 204.841 100.679C213.013 112.91 217.375 127.29 217.375 142C217.353 161.719 209.51 180.623 195.567 194.567C181.623 208.51 162.719 216.353 143 216.375ZM143 78.25C130.391 78.25 118.066 81.9889 107.582 88.9938C97.0988 95.9988 88.9278 105.955 84.1027 117.604C79.2776 129.253 78.0152 142.071 80.475 154.437C82.9348 166.803 89.0064 178.162 97.922 187.078C106.838 195.994 118.197 202.065 130.563 204.525C142.929 206.985 155.747 205.722 167.396 200.897C179.045 196.072 189.001 187.901 196.006 177.418C203.011 166.934 206.75 154.609 206.75 142C206.731 125.098 200.008 108.894 188.057 96.9432C176.106 84.992 159.902 78.2693 143 78.25Z" fill="#5586FF"/>
<defs>
<linearGradient id="paint0_linear_107_2" x1="1.02176e-06" y1="143" x2="285" y2="143" gradientUnits="userSpaceOnUse">
<stop stop-color="#9648FF"/>
<stop offset="1" stop-color="#02D4FF"/>
</linearGradient>
</defs>
</svg>
